<svg xmlns="http://www.w3.org/2000/svg" aria-hidden="true" style="position:absolute;width:0;height:0;overflow:hidden">
  <defs>
    <symbol id="icon-arrow-left" viewBox="0 0 32 32">
      <path d="M9.778 8.889 0 16l9.778 7.111v-5.879H32v-2.463H9.778V8.89z"/>
    </symbol>
    <symbol id="icon-arrow-right" viewBox="0 0 32 32">
      <path d="M22.222 8.889 32 16l-9.778 7.111v-5.879H0v-2.463h22.222V8.89z"/>
    </symbol>
    <symbol id="icon-arrow-up" viewBox="0 0 32 32">
      <path d="M8 9.778 16 0l8 9.778h-6.614V32h-2.771V9.778H8.001z"/>
    </symbol>
    <symbol id="icon-burge-btn" viewBox="0 0 32 32">
      <path d="M0 6.392C0 5.512.714 4.8 1.592 4.8h12.816a1.59 1.59 0 0 1 1.126 2.718 1.59 1.59 0 0 1-1.126.466H1.592A1.59 1.59 0 0 1 0 6.392zM0 16c0-.88.714-1.592 1.592-1.592h28.816a1.59 1.59 0 0 1 1.126 2.718 1.59 1.59 0 0 1-1.126.466H1.592A1.59 1.59 0 0 1 0 16zm1.592 8.016a1.59 1.59 0 0 0-1.126 2.718 1.59 1.59 0 0 0 1.126.466h19.216a1.59 1.59 0 0 0 1.126-2.718 1.59 1.59 0 0 0-1.126-.466H1.592z"/>
    </symbol>
    <symbol id="icon-close" viewBox="0 0 32 32">
      <path stroke-linecap="round" stroke-linejoin="round" stroke-width="1.733" d="M24 8 8 24M8 8l16 16"/>
    </symbol>
    <symbol id="icon-facebook" viewBox="0 0 32 32">
      <path d="M21.851 5.602h2.924V.655a40.727 40.727 0 0 0-4.262-.218c-4.231 0-7.124 2.582-7.124 7.311v4.076H8.613v5.538h4.776v14.187h5.724V17.362h4.76l.716-5.538h-5.476V8.293c0-1.633.436-2.691 2.738-2.691z"/>
    </symbol>
    <symbol id="icon-ship-dex" viewBox="0 0 32 32">
      <path d="M-6.609-9.143h44.348v44.8H-6.609v-44.8z"/>
    </symbol>
    <symbol id="icon-ship-mob" viewBox="0 0 32 32">
      <path d="M-7.111-9.142h45.333v44.8H-7.111v-44.8z"/>
    </symbol>
    <symbol id="icon-instagram" viewBox="0 0 32 32">
      <path d="M23.982 6.229a1.794 1.794 0 0 0-1.758 2.141 1.785 1.785 0 0 0 1.408 1.408 1.788 1.788 0 0 0 1.839-.762 1.792 1.792 0 0 0-1.49-2.788zm6.869 3.614a11.33 11.33 0 0 0-.687-3.629 7.38 7.38 0 0 0-1.732-2.643 7.01 7.01 0 0 0-2.643-1.717 10.905 10.905 0 0 0-3.629-.702c-1.583-.09-2.091-.09-6.152-.09s-4.57 0-6.153.09a10.905 10.905 0 0 0-3.629.702 7.135 7.135 0 0 0-2.643 1.717 7.01 7.01 0 0 0-1.717 2.643 10.905 10.905 0 0 0-.702 3.629c-.09 1.583-.09 2.091-.09 6.153s0 4.57.09 6.153c.026 1.241.263 2.468.702 3.629.365 1 .952 1.904 1.717 2.643a7.135 7.135 0 0 0 2.643 1.717c1.161.439 2.388.676 3.629.702 1.583.09 2.091.09 6.153.09s4.57 0 6.152-.09a10.905 10.905 0 0 0 3.629-.702c1-.365 1.904-.952 2.643-1.717a7.23 7.23 0 0 0 1.732-2.643 11.33 11.33 0 0 0 .687-3.629c0-1.583.09-2.091.09-6.153s0-4.57-.09-6.153zm-2.688 12.126a8.365 8.365 0 0 1-.508 2.778 4.556 4.556 0 0 1-1.12 1.717 4.763 4.763 0 0 1-1.717 1.12c-.89.325-1.83.497-2.778.508-1.493.075-2.046.09-5.973.09s-4.48 0-5.973-.09a8.566 8.566 0 0 1-2.897-.448 4.885 4.885 0 0 1-1.643-1.12 4.473 4.473 0 0 1-1.105-1.717 8.25 8.25 0 0 1-.597-2.837c0-1.493-.09-2.046-.09-5.973s0-4.48.09-5.973a8.281 8.281 0 0 1 .523-2.837 4.482 4.482 0 0 1 1.18-1.643 4.7 4.7 0 0 1 1.643-1.195 8.58 8.58 0 0 1 2.837-.508c1.493 0 2.046-.09 5.973-.09s4.48 0 5.973.09a8.39 8.39 0 0 1 2.778.508 4.56 4.56 0 0 1 1.777 1.195c.489.459.872 1.02 1.12 1.643a8.37 8.37 0 0 1 .508 2.837c.075 1.493.09 2.046.09 5.973s-.015 4.48-.09 5.973zM16.008 8.335a7.665 7.665 0 0 0-7.067 4.739 7.66 7.66 0 0 0 10.017 9.997 7.657 7.657 0 0 0 4.726-7.077 7.645 7.645 0 0 0-7.675-7.66zm0 12.634a4.976 4.976 0 0 1-4.595-3.07 4.967 4.967 0 0 1 1.078-5.419 4.974 4.974 0 0 1 8.11 5.42 4.965 4.965 0 0 1-2.691 2.691 4.97 4.97 0 0 1-1.903.378z"/>
    </symbol>
    <symbol id="icon-youtube" viewBox="0 0 32 32">
      <path d="M24.057 6.222c-1.33-.078-4.068-.156-8.213-.156h-.548c-3.989 0-6.649.078-7.979.235-1.799.156-3.051.626-3.755 1.252-.626.548-1.095 1.564-1.252 2.894-.078.86-.156 2.66-.156 5.397v.391c0 2.581.078 4.38.235 5.241.235 1.252.626 2.19 1.408 2.738.782.626 2.112 1.017 3.989 1.173 1.33.078 4.068.156 8.213.156h.548c3.989 0 6.649-.078 7.979-.235 1.799-.156 3.051-.626 3.755-1.252.626-.548 1.095-1.564 1.252-2.894.078-.86.156-2.66.156-5.397v-.391c0-2.581-.078-4.38-.235-5.241-.235-1.252-.626-2.19-1.408-2.738-.782-.626-2.112-1.017-3.989-1.173zm-3.051 9.622-8.604 5.163V10.682l8.604 5.163z"/>
    </symbol>
  </defs>
</svg>