
<svg version="1.1" xmlns="http://www.w3.org/2000/svg" xmlns:xlink="http://www.w3.org/1999/xlink" x="0px" y="0px"
	 viewBox="0 0 500 500" style="enable-background:new 0 0 500 500;" xml:space="preserve">
<g id="BACKGROUND">
	<g id="background">
		<rect style="fill:#FFFFFF;" width="500" height="500"/>
	</g>
</g>
<g id="OBJECTS">
	<g>
		<path style="fill:#FED3AE;" d="M311.909,374.758c-13.419,2.439-26.888,3.412-40.432,4.73c-12.715,1.237-26.361-0.806-39.299-0.619
			c-27.977,0.404-56.082,2.74-83.98-0.484c-2.501-0.289-4.997-0.621-7.485-1.004c0.547,0.084,2.348,4.471,3.25,5.243
			c4.045,3.464,8.325,1.964,12.983,1.843c6.927-0.18,13.883,0.008,20.813,0.007c13.861-0.001,27.723-0.017,41.583-0.077
			c27.432-0.12,54.864-0.416,82.288-1.114c5.511-0.14,11.1-0.309,16.37-1.924c7.235-2.217,16.026-7.845,20.169-14.215
			c-3.156-0.898-8.763,3.155-11.88,4.176C321.602,372.857,316.757,373.877,311.909,374.758z"/>
		<path style="fill:#B9E1E3;" d="M96.687,404.329c10.182,1.599,22.143,3.462,29.464-3.794c8.421-8.346-10.054-8.516-11.329-14.946
			c26.186,1.879,50.6,18.157,76.732,15.643c16.815-1.618,12.918,2.268,21.578,6.282c9.794,4.539,20.549-4.501,31.34-4.777
			c4.452-0.114,9.104,1.27,13.25-0.357c4.146-1.626,6.034-8.616,1.852-10.147c9.978,2.668,19.955,5.336,29.932,8.005
			c17.816,4.764,15.921-8.601,11.62-9.475c21.156-3.738,39.782,27.039,59.924,15.527c11.749-6.715,5.601-20.911-2.981-18.243
			c7.812-6.076,19.368-2.103,27.354,3.743c7.986,5.846,15.317,13.617,25.072,15.287c5.376,0.92,10.872,0.54,16.324,0.655
			c5.942,0.125,7.929,0.125,6.935,2.111c-14.32,28.64-103.429,6.372-245.581,13.717c-58.175,3.006-100.074,9.128-119.787-9.246
			C59.715,406.228,88.777,403.087,96.687,404.329z"/>
		<path style="fill:#F8EDEB;" d="M243.559,138.061c4.111,12.305,7.269,24.905,10.31,37.516
			c7.372,30.565,14.122,61.624,13.712,93.063c-0.319,24.476-4.976,48.671-9.98,72.633c16.544-9.77,35.279-16.301,54.486-16.829
			c19.206-0.528,38.872,5.276,53.481,17.756c2.445-19.294,4.893-38.804,2.756-58.134c-1.685-15.243-6.188-30.027-11.137-44.542
			c-5.3-15.542-11.146-30.919-18.188-45.754c-21.453-45.193-53.752-80.299-92.414-111.413c-7.182-5.78-15.11-10.897-23.021-15.509
			c-7.029-4.097-17.556-7.234-21.59-14.983c3.789,7.279,8.059,14.199,11.971,21.374C225.324,94.107,236.013,115.471,243.559,138.061
			z"/>
		<path style="fill:#F8EDEB;" d="M175.681,283.898c13.743-24.785,27.179-50.026,35.068-77.245
			c7.07-24.395,9.531-49.853,11.844-75.146c0.939-10.268,1.854-20.671,0.169-30.843c3.141,6.045,2.887,13.204,3.984,19.927
			c1.562,9.577,5.926,18.424,9.607,27.402c10.941,26.68,16.097,55.409,18.749,84.123c2.999,32.466,2.686,66.25-9.983,96.293
			c-0.743,1.761-1.658,3.644-3.386,4.459c-2.01,0.948-4.359,0.125-6.461-0.597c-9.692-3.325-20.182-4.3-30.321-2.817
			c-14.448,2.114-30.205,7.075-43.688,12.795c-5.466,2.319-10.439,5.594-15.737,8.073c-1.562,0.73-9.082,2.326-9.612,3.827
			c2.304-6.526,6.56-12.126,10.027-18.045c5.133-8.762,10.204-17.56,15.229-26.385C165.688,301.787,169.645,290.689,175.681,283.898
			z"/>
		<path style="fill:none;stroke:#36364C;stroke-linecap:round;stroke-linejoin:round;stroke-miterlimit:10;" d="M414.457,408.497
			c-14.864,1.785-18.751-8.655-27.406-19.473c-4.487-5.609-18.751-12.261-31.733-2.885c6.251-1.09,12.842,7.261,10.097,12.982
			c-2.745,5.721-13.179,8.744-19.473,7.933c-16.685-2.149-34.178-26.204-49.17-18.202c5.132,1.539,14.655,14.051-9.248,10.99
			c-16.044-2.054-21.568-9.198-29.57-7.933c2.882,1.62,5.352,7.474,1.847,7.899c-13.649,1.654-24.925-0.687-32.138,7.967
			c59.761-0.776,65.345,1.689,72.331-3.594c27.22-20.585,27.776-25.502,36.791-32.419c-17.137,13.008-39.674,13.168-60.453,13.097
			c-128.143-0.438-132.398,2.201-136.387-6.813c162.052,7.561,196.297,0.241,217.502-29.09c-8.667-0.998-18.017,0.08-26.731,0.531
			c-12.232,0.633-19.77,4.949-30.218,10.18c-22.557,11.292-49.779,8.133-74.18,9.173c-3.042,0.13-4.535-8.873,0.143-14.321
			c4.073-4.742,13.072-5.996,18.185-1.991c2.07,1.621,3.496,6.518-0.307,7.256c-4.322,0.839-12.095-12.481,19.536-9.659
			c6.002,0.536,7.116,3.304,4.836,8.494c-3.93,8.945-11.184-7.993,1.51-7.393c7.994,0.378,22.254-3.304,16.133,20.812
			c11.862-0.342,26.025-3.375,33.673-11.363c3.573-3.731,3.789-6.369,3.785-11.134c-0.077-92.041-26.288-174.393-52.182-217.381
			c3.227,37.977,9.03,87.741,1.216,144.374c-0.738,5.351-11.385,63.792-15.758,64.608c6.67-1.244,12.055-5.949,17.633-9.812
			c26.14-18.103,66.993-12.796,87.968,11.041c19.38-29.692,5.752-92.408-11.334-125.56
			c-42.52-82.502-64.892-105.539-149.922-165.537c50.265,88.518,87.516,190.24,46.795,284.548
			c-38.209-17.451-79.664,2.494-113.113,19.397c24.242-40.974,26.292-61.843,43.153-64.371c17.902-2.684,36.372-1.326,53.686,3.967
			c-2.329-6.889-11.029-8.798-18.282-9.324c-12.723-0.923-25.509-0.985-38.24-0.187c20.981-39.879,19.512-40.728,32.013-42.764
			c10.124-1.649,20.537-1.516,30.616,0.39c2.35-9.581-23.689-10.625-37.859-4.936c14.199-41.38,12.51-48.65,35.007-42.237
			c0.223-4.079-3.286-7.606-7.189-8.81c-18.469-5.697-11.003,14.905-8.78-28.038c3.461-0.164,6.922-0.328,10.383-0.492
			c1.622-1.439-0.514-4.061-2.626-4.554c-8.673-2.023-6.75,4.068-3.343-54.165c15.383,41.428,30.017,110.152,31.809,129.866
			c8.46,93.065-17.478,105.389-41.007,134.641c-3.884,4.829-5.599,5.919-10.99,6.199c-64.327,3.35-31.686,0.38-86.632,0.546
			c5.167,14.939,18.651,30.915,34.343,35.344c19.57,5.523,58.602-1.072,60.616,1.479c-10.819-13.702-26.852,2.564-60.622-13.329
			c-9.365-4.407-17.879-15.892-35.544-9.224c16.833,8.129,11.064,18.948,2.409,21.111c-13.941,3.485-18.515-14.867-49.306,4.005"/>
	</g>
</g>
</svg>
