<svg width="16" height="16" viewBox="0 0 16 16" fill="none" xmlns="http://www.w3.org/2000/svg">
<path d="M11.991 3.11472C11.8138 3.11472 11.6405 3.16727 11.4932 3.26572C11.3458 3.36417 11.231 3.50411 11.1632 3.66783C11.0954 3.83156 11.0776 4.01171 11.1122 4.18552C11.1468 4.35932 11.2321 4.51898 11.3574 4.64428C11.4827 4.76959 11.6424 4.85493 11.8162 4.8895C11.99 4.92407 12.1701 4.90633 12.3339 4.83851C12.4976 4.7707 12.6375 4.65585 12.736 4.50851C12.8344 4.36116 12.887 4.18793 12.887 4.01072C12.887 3.77308 12.7926 3.54518 12.6245 3.37715C12.4565 3.20912 12.2286 3.11472 11.991 3.11472ZM15.4256 4.92165C15.4111 4.30214 15.2951 3.6892 15.0822 3.10725C14.8923 2.60932 14.5968 2.15844 14.216 1.78565C13.8463 1.40293 13.3944 1.1093 12.8944 0.926983C12.314 0.707583 11.7004 0.5889 11.08 0.57605C10.2886 0.53125 10.0347 0.53125 8.00378 0.53125C5.97284 0.53125 5.71898 0.53125 4.92751 0.57605C4.30714 0.5889 3.69353 0.707583 3.11311 0.926983C2.61409 1.11115 2.16255 1.40452 1.79151 1.78565C1.40879 2.15538 1.11516 2.60731 0.932843 3.10725C0.713443 3.68767 0.59476 4.30128 0.581909 4.92165C0.537109 5.71312 0.537109 5.96698 0.537109 7.99792C0.537109 10.0289 0.537109 10.2827 0.581909 11.0742C0.59476 11.6946 0.713443 12.3082 0.932843 12.8886C1.11516 13.3885 1.40879 13.8405 1.79151 14.2102C2.16255 14.5913 2.61409 14.8847 3.11311 15.0689C3.69353 15.2883 4.30714 15.4069 4.92751 15.4198C5.71898 15.4646 5.97284 15.4646 8.00378 15.4646C10.0347 15.4646 10.2886 15.4646 11.08 15.4198C11.7004 15.4069 12.314 15.2883 12.8944 15.0689C13.3944 14.8865 13.8463 14.5929 14.216 14.2102C14.5985 13.8388 14.8943 13.3875 15.0822 12.8886C15.2951 12.3066 15.4111 11.6937 15.4256 11.0742C15.4256 10.2827 15.4704 10.0289 15.4704 7.99792C15.4704 5.96698 15.4704 5.71312 15.4256 4.92165ZM14.0816 10.9846C14.0762 11.4585 13.9904 11.9281 13.8278 12.3734C13.7086 12.6983 13.5171 12.9919 13.2678 13.2321C13.0256 13.4788 12.7326 13.6699 12.4091 13.7921C11.9639 13.9546 11.4943 14.0405 11.0203 14.0459C10.2736 14.0833 9.99738 14.0907 8.03364 14.0907C6.06991 14.0907 5.79364 14.0907 5.04698 14.0459C4.55484 14.0551 4.06481 13.9794 3.59844 13.8219C3.28916 13.6935 3.00959 13.5029 2.77711 13.2619C2.52928 13.022 2.34019 12.7282 2.22458 12.4033C2.04228 11.9516 1.94117 11.4714 1.92591 10.9846C1.92591 10.2379 1.88111 9.96165 1.88111 7.99792C1.88111 6.03418 1.88111 5.75792 1.92591 5.01125C1.92926 4.52671 2.01771 4.04652 2.18724 3.59258C2.31869 3.27742 2.52045 2.99649 2.77711 2.77125C3.00396 2.51452 3.28431 2.31063 3.59844 2.17392C4.05357 2.00968 4.53327 1.92384 5.01711 1.92005C5.76378 1.92005 6.04004 1.87525 8.00378 1.87525C9.96751 1.87525 10.2438 1.87525 10.9904 1.92005C11.4644 1.92549 11.934 2.01133 12.3792 2.17392C12.7186 2.29984 13.0231 2.50458 13.2678 2.77125C13.5125 3.00061 13.7037 3.28102 13.8278 3.59258C13.9937 4.04725 14.0796 4.52725 14.0816 5.01125C14.119 5.75792 14.1264 6.03418 14.1264 7.99792C14.1264 9.96165 14.119 10.2379 14.0816 10.9846ZM8.00378 4.16752C7.24651 4.16899 6.50668 4.3949 5.87776 4.81668C5.24884 5.23847 4.75905 5.83721 4.47028 6.53725C4.18151 7.2373 4.10672 8.00723 4.25536 8.74976C4.40399 9.49229 4.76939 10.1741 5.30538 10.709C5.84137 11.244 6.52389 11.6081 7.26671 11.7553C8.00953 11.9024 8.77931 11.8262 9.47879 11.536C10.1783 11.2459 10.7761 10.7549 11.1966 10.1252C11.6172 9.49545 11.8416 8.75518 11.8416 7.99792C11.8426 7.494 11.744 6.99485 11.5514 6.52919C11.3588 6.06353 11.076 5.64055 10.7193 5.28457C10.3626 4.92859 9.9391 4.64664 9.47307 4.45493C9.00703 4.26322 8.5077 4.16555 8.00378 4.16752ZM8.00378 10.4843C7.51201 10.4843 7.03129 10.3385 6.62241 10.0653C6.21352 9.79207 5.89483 9.40375 5.70664 8.94942C5.51845 8.49509 5.46921 7.99516 5.56515 7.51285C5.66109 7.03053 5.8979 6.5875 6.24563 6.23977C6.59336 5.89204 7.03639 5.65523 7.5187 5.55929C8.00102 5.46335 8.50095 5.51259 8.95528 5.70078C9.40961 5.88897 9.79793 6.20766 10.0711 6.61655C10.3444 7.02543 10.4902 7.50615 10.4902 7.99792C10.4902 8.32444 10.4259 8.64776 10.3009 8.94942C10.176 9.25109 9.99281 9.52518 9.76193 9.75607C9.53104 9.98695 9.25694 10.1701 8.95528 10.2951C8.65362 10.42 8.3303 10.4843 8.00378 10.4843Z" fill="#F6F5EF"/>
</svg>
