<svg width="18" height="18" viewBox="0 0 18 18" fill="none" xmlns="http://www.w3.org/2000/svg">
<path fill-rule="evenodd" clip-rule="evenodd" d="M13.5319 3.50011C12.7839 3.45611 11.2439 3.41211 8.91192 3.41211H8.60391C6.35991 3.41211 4.86393 3.45611 4.11593 3.54411C3.10393 3.63211 2.39991 3.89611 2.00391 4.24811C1.65191 4.55611 1.38792 5.12811 1.29992 5.87611C1.25592 6.36011 1.21191 7.37211 1.21191 8.91211V9.13211C1.21191 10.5841 1.25591 11.5961 1.34391 12.0801C1.47591 12.7841 1.69593 13.3121 2.13593 13.6201C2.57593 13.9721 3.32392 14.1921 4.37992 14.2801C5.12792 14.3241 6.66792 14.3681 8.99992 14.3681H9.30793C11.5519 14.3681 13.0479 14.3241 13.7959 14.2361C14.8079 14.1481 15.5119 13.8841 15.9079 13.5321C16.2599 13.2241 16.5239 12.6521 16.6119 11.9041C16.6559 11.4201 16.6999 10.4081 16.6999 8.86811V8.64811C16.6999 7.19611 16.6559 6.18411 16.5679 5.70011C16.4359 4.99611 16.2159 4.46811 15.7759 4.16011C15.3359 3.80811 14.5879 3.58811 13.5319 3.50011ZM11.8159 8.91211L6.97593 11.8161V6.00811L11.8159 8.91211Z" fill="#F6F5EF"/>
</svg>
